<svg width="488.5199829101562px" height="178.43984375px" xmlns="http://www.w3.org/2000/svg" viewBox="5.740008544921892 -14.219921874999997 488.5199829101562 178.43984375" style="background: rgba(0, 0, 0, 0);" preserveAspectRatio="xMidYMid"><defs><linearGradient id="editing-gradient-gradient" x1="0" x2="1" y1="0.5" y2="0.5" gradientUnits="objectBoundingBox"><stop offset="0" stop-color="#f0f"></stop><stop offset="1" stop-color="#0ff"></stop></linearGradient></defs><g><g transform="translate(80.89686888456345, 109.95000076293945)"><path d="M22.20 0L0.80 0L13-65.70L13-65.70Q22.90-66.80 37.35-66.80L37.35-66.80L37.35-66.80Q51.80-66.80 58.50-62.60L58.50-62.60L58.50-62.60Q65.20-58.40 65.20-49.95L65.20-49.95L65.20-49.95Q65.20-41.50 60.85-36.20L60.85-36.20L60.85-36.20Q56.50-30.90 49-29.20L49-29.20L49-29.20Q50.70-20.90 54.60-14.20L54.60-14.20L54.60-14.20Q58.20-7.90 62.40-5.90L62.40-5.90L62.40-5.90Q60.90-1.70 57.85 0.15L57.85 0.15L57.85 0.15Q54.80 2 50.45 2L50.45 2L50.45 2Q46.10 2 42.70-0.55L42.70-0.55L42.70-0.55Q39.30-3.10 36.60-7.80L36.60-7.80L36.60-7.80Q30.90-18 30.30-34.10L30.30-34.10L31-34.10L31-34.10Q38.40-34.30 42.10-38.15L42.10-38.15L42.10-38.15Q45.80-42 45.80-50.10L45.80-50.10L45.80-50.10Q45.80-60.20 37.30-60.60L37.30-60.60L35.10-60.60L35.10-60.60Q34.20-60.60 33.70-60.50L33.70-60.50L22.20 0ZM134.70-41.50L134.70-41.50L134.70-41.50Q134.70 1.10 88.50 1.10L88.50 1.10L88.50 1.10Q81.10 1.10 68.90-0.70L68.90-0.70L80.10-59.80L80.10-59.80Q80.90-63.80 81.40-66.10L81.40-66.10L81.40-66.10Q96.60-67.20 103.35-67.20L103.35-67.20L103.35-67.20Q110.10-67.20 116.30-65.80L116.30-65.80L116.30-65.80Q122.50-64.40 126.60-61.30L126.60-61.30L126.60-61.30Q134.70-55.20 134.70-41.50ZM114.10-45.20L114.10-45.20L114.10-45.20Q114.10-60.10 103.40-60.10L103.40-60.10L102.40-60.10L102.40-60.10Q101.90-60.10 101.40-60L101.40-60L91.10-6.30L91.10-6.30Q91.50-6.10 91.90-6.10L91.90-6.10L92.70-6.10L92.70-6.10Q96.40-6.10 100.25-8.40L100.25-8.40L100.25-8.40Q104.10-10.70 107.10-15.40L107.10-15.40L107.10-15.40Q114.10-26.30 114.10-45.20ZM158.30 1.30L151.90 1.10L151.90 1.10Q148.80 1 145.55 1L145.55 1L145.55 1Q142.30 1 139.10 1.40L139.10 1.40L139.10 1.40Q138.70-0.20 138.70-2.10L138.70-2.10L138.70-2.10Q138.70-6.10 140.95-8.50L140.95-8.50L140.95-8.50Q143.20-10.90 146.70-10.90L146.70-10.90L152.10-10.90L160.50-48.70L160.50-48.70Q157.40-45.60 151.00-45.60L151.00-45.60L151.00-45.60Q147.80-45.60 145.30-48.60L145.30-48.60L145.30-48.60Q142.80-51.40 142.40-55.40L142.40-55.40L142.40-55.40Q157.20-58 179.30-67.90L179.30-67.90L182.50-64.10L172.80-10.90L175.30-10.90L175.30-10.90Q181.30-10.90 184.40-12L184.40-12L184.40-12Q185.70-9.80 185.70-6.20L185.70-6.20L185.70-6.20Q185.70-2.60 183.05-0.45L183.05-0.45L183.05-0.45Q180.40 1.70 176.00 1.70L176.00 1.70L176.00 1.70Q167.10 1.70 158.30 1.30L158.30 1.30ZM189-5.90L189-5.90L189-5.90Q189-9.70 191.95-11.80L191.95-11.80L191.95-11.80Q194.90-13.90 199.10-13.90L199.10-13.90L199.10-13.90Q203.30-13.90 205.85-11.80L205.85-11.80L205.85-11.80Q208.40-9.70 208.40-5.90L208.40-5.90L208.40-5.90Q208.40-2.10 205.55-0.05L205.55-0.05L205.55-0.05Q202.70 2 198.50 2L198.50 2L198.50 2Q194.30 2 191.65-0.05L191.65-0.05L191.65-0.05Q189-2.10 189-5.90ZM216.70-0.50L216.70-0.50L229.30-66L229.30-66Q241.10-67 248.70-67L248.70-67L248.70-67Q256.30-67 261.20-66.35L261.20-66.35L261.20-66.35Q266.10-65.70 269.40-64L269.40-64L269.40-64Q276-60.80 276-52L276-52L276-52Q276-46.90 271.60-42.60L271.60-42.60L271.60-42.60Q267.50-38.70 263-37.80L263-37.80L263-37.80Q267.80-37 271.20-33.40L271.20-33.40L271.20-33.40Q274.80-29.60 274.80-23.70L274.80-23.70L274.80-23.70Q274.80-12.30 266.30-5.65L266.30-5.65L266.30-5.65Q257.80 1 241.10 1L241.10 1L241.10 1Q229.60 1 216.70-0.50ZM243.90-32.20L238.90-6.30L238.90-6.30Q239.80-6.20 240-6.20L240-6.20L240.90-6.20L240.90-6.20Q249.10-6.20 252.60-11.60L252.60-11.60L252.60-11.60Q255.20-15.80 255.20-23.50L255.20-23.50L255.20-23.50Q255.20-27.60 252.55-29.80L252.55-29.80L252.55-29.80Q249.90-32 243.90-32.20L243.90-32.20ZM259.10-51.90L259.10-51.90L259.10-51.90Q259.10-60.20 251.10-60.20L251.10-60.20L250.20-60.20L250.20-60.20Q249.80-60.20 249.20-60.10L249.20-60.10L245.20-39L246.20-39L246.20-39Q259.10-39.30 259.10-51.90ZM289 0L294.80-29.40L294.80-29.40Q291.90-56.50 281.70-62.30L281.70-62.30L281.70-62.30Q283.80-64.90 287.20-66.35L287.20-66.35L287.20-66.35Q290.60-67.80 294.70-67.80L294.70-67.80L294.70-67.80Q298.80-67.80 301.90-66.35L301.90-66.35L301.90-66.35Q305-64.90 307-61.80L307-61.80L307-61.80Q310.80-55.90 310.80-41.80L310.80-41.80L310.80-34.60L310.80-34.60Q316.80-52.20 322.80-59.80L322.80-59.80L322.80-59.80Q328.90-67.60 336.50-67.60L336.50-67.60L336.50-67.60Q339.50-67.60 341.50-66.05L341.50-66.05L341.50-66.05Q343.50-64.50 344.50-62.20L344.50-62.20L344.50-62.20Q336.80-58.80 329.40-49L329.40-49L329.40-49Q322-39.20 317.20-25.50L317.20-25.50L311.30 0L289 0Z" fill="url(#editing-gradient-gradient)"></path></g></g><style>text {font-size: 128px; font-family: Arial Black; dominant-baseline: central; text-anchor: middle;}</style></svg>
